<svg width="512" height="512" viewBox="0 0 512 512" fill="none" xmlns="http://www.w3.org/2000/svg">
<rect width="512" height="512" fill="#D9D9D9"/>
<rect x="220.887" y="457.222" width="225.805" height="70.4587" transform="rotate(-90 220.887 457.222)" fill="#1E1E1E"/>
<rect width="248.511" height="65.0173" transform="matrix(0.766285 0.642501 -0.766285 0.642501 101.492 78.7692)" fill="#1E1E1E"/>
<rect width="248.511" height="65.0173" transform="matrix(0.766285 -0.642501 0.766285 0.642501 220.771 238.438)" fill="#1E1E1E"/>
<path d="M369.517 325.579L437.316 424.041H301.718L369.517 325.579Z" fill="#1E1E1E"/>
<path d="M369.517 333.456L399.348 419.118H339.685L369.517 333.456Z" fill="white"/>
<rect x="120.563" y="170.667" width="17.2232" height="148.349" fill="#1E1E1E"/>
<ellipse cx="132.306" cy="365.621" rx="58.7156" ry="49.2308" fill="#1E1E1E"/>
<ellipse cx="132.306" cy="365.621" rx="27.4006" ry="22.9744" fill="white"/>
<path d="M191.659 464.727H197.17L202.477 474.75H202.705L208.011 464.727H213.523L205.034 479.773V488H200.148V479.773L191.659 464.727ZM220.418 488.341C218.622 488.341 217.077 487.977 215.781 487.25C214.493 486.515 213.501 485.477 212.804 484.136C212.107 482.788 211.759 481.193 211.759 479.352C211.759 477.557 212.107 475.981 212.804 474.625C213.501 473.269 214.482 472.212 215.747 471.455C217.02 470.697 218.512 470.318 220.224 470.318C221.376 470.318 222.448 470.504 223.44 470.875C224.44 471.239 225.312 471.788 226.054 472.523C226.804 473.258 227.387 474.182 227.804 475.295C228.221 476.402 228.429 477.697 228.429 479.182V480.511H213.69V477.511H223.872C223.872 476.814 223.721 476.197 223.418 475.659C223.115 475.121 222.694 474.701 222.156 474.398C221.626 474.087 221.009 473.932 220.304 473.932C219.569 473.932 218.918 474.102 218.349 474.443C217.789 474.777 217.349 475.227 217.031 475.795C216.713 476.356 216.55 476.981 216.543 477.67V480.523C216.543 481.386 216.702 482.133 217.02 482.761C217.346 483.39 217.804 483.875 218.395 484.216C218.986 484.557 219.687 484.727 220.497 484.727C221.035 484.727 221.527 484.652 221.974 484.5C222.421 484.348 222.804 484.121 223.122 483.818C223.44 483.515 223.683 483.144 223.849 482.705L228.327 483C228.099 484.076 227.634 485.015 226.929 485.818C226.232 486.614 225.33 487.235 224.224 487.682C223.126 488.121 221.857 488.341 220.418 488.341ZM236.429 464.727V488H231.588V464.727H236.429ZM240.307 494.545V470.545H245.08V473.477H245.295C245.508 473.008 245.814 472.53 246.216 472.045C246.625 471.553 247.155 471.144 247.807 470.818C248.466 470.485 249.284 470.318 250.261 470.318C251.534 470.318 252.708 470.652 253.784 471.318C254.86 471.977 255.72 472.973 256.364 474.307C257.008 475.633 257.33 477.295 257.33 479.295C257.33 481.242 257.015 482.886 256.386 484.227C255.765 485.561 254.917 486.572 253.841 487.261C252.773 487.943 251.576 488.284 250.25 488.284C249.311 488.284 248.511 488.129 247.852 487.818C247.201 487.508 246.667 487.117 246.25 486.648C245.833 486.17 245.515 485.689 245.295 485.205H245.148V494.545H240.307ZM245.045 479.273C245.045 480.311 245.189 481.216 245.477 481.989C245.765 482.761 246.182 483.364 246.727 483.795C247.273 484.22 247.936 484.432 248.716 484.432C249.504 484.432 250.17 484.216 250.716 483.784C251.261 483.345 251.674 482.739 251.955 481.966C252.242 481.186 252.386 480.288 252.386 479.273C252.386 478.265 252.246 477.379 251.966 476.614C251.686 475.848 251.273 475.25 250.727 474.818C250.182 474.386 249.511 474.17 248.716 474.17C247.928 474.17 247.261 474.379 246.716 474.795C246.178 475.212 245.765 475.803 245.477 476.568C245.189 477.333 245.045 478.235 245.045 479.273ZM281.182 472.875H276.205C276.114 472.231 275.928 471.659 275.648 471.159C275.367 470.652 275.008 470.22 274.568 469.864C274.129 469.508 273.621 469.235 273.045 469.045C272.477 468.856 271.86 468.761 271.193 468.761C269.989 468.761 268.939 469.061 268.045 469.659C267.152 470.25 266.458 471.114 265.966 472.25C265.473 473.379 265.227 474.75 265.227 476.364C265.227 478.023 265.473 479.417 265.966 480.545C266.466 481.674 267.163 482.527 268.057 483.102C268.951 483.678 269.985 483.966 271.159 483.966C271.818 483.966 272.428 483.879 272.989 483.705C273.557 483.53 274.061 483.277 274.5 482.943C274.939 482.602 275.303 482.189 275.591 481.705C275.886 481.22 276.091 480.667 276.205 480.045L281.182 480.068C281.053 481.136 280.731 482.167 280.216 483.159C279.708 484.144 279.023 485.027 278.159 485.807C277.303 486.58 276.28 487.193 275.091 487.648C273.909 488.095 272.572 488.318 271.08 488.318C269.004 488.318 267.148 487.848 265.511 486.909C263.883 485.97 262.595 484.61 261.648 482.83C260.708 481.049 260.239 478.894 260.239 476.364C260.239 473.826 260.716 471.667 261.67 469.886C262.625 468.106 263.92 466.75 265.557 465.818C267.193 464.879 269.034 464.409 271.08 464.409C272.428 464.409 273.678 464.598 274.83 464.977C275.989 465.356 277.015 465.909 277.909 466.636C278.803 467.356 279.53 468.239 280.091 469.284C280.659 470.33 281.023 471.527 281.182 472.875ZM289.597 488.33C288.483 488.33 287.491 488.136 286.619 487.75C285.748 487.356 285.059 486.777 284.551 486.011C284.051 485.239 283.801 484.277 283.801 483.125C283.801 482.155 283.979 481.341 284.335 480.682C284.691 480.023 285.176 479.492 285.79 479.091C286.403 478.689 287.1 478.386 287.881 478.182C288.669 477.977 289.494 477.833 290.358 477.75C291.373 477.644 292.191 477.545 292.812 477.455C293.434 477.356 293.884 477.212 294.165 477.023C294.445 476.833 294.585 476.553 294.585 476.182V476.114C294.585 475.394 294.358 474.837 293.903 474.443C293.456 474.049 292.82 473.852 291.994 473.852C291.123 473.852 290.43 474.045 289.915 474.432C289.4 474.811 289.059 475.288 288.892 475.864L284.415 475.5C284.642 474.439 285.089 473.523 285.756 472.75C286.422 471.97 287.282 471.371 288.335 470.955C289.396 470.53 290.623 470.318 292.017 470.318C292.987 470.318 293.915 470.432 294.801 470.659C295.695 470.886 296.487 471.239 297.176 471.716C297.873 472.193 298.422 472.807 298.824 473.557C299.225 474.299 299.426 475.189 299.426 476.227V488H294.835V485.58H294.699C294.419 486.125 294.044 486.606 293.574 487.023C293.104 487.432 292.54 487.754 291.881 487.989C291.222 488.216 290.46 488.33 289.597 488.33ZM290.983 484.989C291.695 484.989 292.324 484.848 292.869 484.568C293.415 484.28 293.843 483.894 294.153 483.409C294.464 482.924 294.619 482.375 294.619 481.761V479.909C294.468 480.008 294.259 480.098 293.994 480.182C293.737 480.258 293.445 480.33 293.119 480.398C292.794 480.458 292.468 480.515 292.142 480.568C291.816 480.614 291.521 480.655 291.256 480.693C290.688 480.777 290.191 480.909 289.767 481.091C289.343 481.273 289.013 481.519 288.778 481.83C288.544 482.133 288.426 482.511 288.426 482.966C288.426 483.625 288.665 484.129 289.142 484.477C289.627 484.818 290.241 484.989 290.983 484.989ZM303.182 488V470.545H307.795V473.625H308C308.364 472.602 308.97 471.795 309.818 471.205C310.667 470.614 311.682 470.318 312.864 470.318C314.061 470.318 315.08 470.617 315.92 471.216C316.761 471.807 317.322 472.61 317.602 473.625H317.784C318.14 472.625 318.784 471.826 319.716 471.227C320.655 470.621 321.765 470.318 323.045 470.318C324.674 470.318 325.996 470.837 327.011 471.875C328.034 472.905 328.545 474.367 328.545 476.261V488H323.716V477.216C323.716 476.246 323.458 475.519 322.943 475.034C322.428 474.549 321.784 474.307 321.011 474.307C320.133 474.307 319.447 474.587 318.955 475.148C318.462 475.701 318.216 476.432 318.216 477.341V488H313.523V477.114C313.523 476.258 313.277 475.576 312.784 475.068C312.299 474.561 311.659 474.307 310.864 474.307C310.326 474.307 309.841 474.443 309.409 474.716C308.985 474.981 308.648 475.356 308.398 475.841C308.148 476.318 308.023 476.879 308.023 477.523V488H303.182ZM332.369 494.545V470.545H337.142V473.477H337.358C337.57 473.008 337.877 472.53 338.278 472.045C338.688 471.553 339.218 471.144 339.869 470.818C340.528 470.485 341.347 470.318 342.324 470.318C343.597 470.318 344.771 470.652 345.847 471.318C346.922 471.977 347.782 472.973 348.426 474.307C349.07 475.633 349.392 477.295 349.392 479.295C349.392 481.242 349.078 482.886 348.449 484.227C347.828 485.561 346.979 486.572 345.903 487.261C344.835 487.943 343.638 488.284 342.312 488.284C341.373 488.284 340.574 488.129 339.915 487.818C339.263 487.508 338.729 487.117 338.312 486.648C337.896 486.17 337.578 485.689 337.358 485.205H337.21V494.545H332.369ZM337.108 479.273C337.108 480.311 337.252 481.216 337.54 481.989C337.828 482.761 338.244 483.364 338.79 483.795C339.335 484.22 339.998 484.432 340.778 484.432C341.566 484.432 342.233 484.216 342.778 483.784C343.324 483.345 343.737 482.739 344.017 481.966C344.305 481.186 344.449 480.288 344.449 479.273C344.449 478.265 344.309 477.379 344.028 476.614C343.748 475.848 343.335 475.25 342.79 474.818C342.244 474.386 341.574 474.17 340.778 474.17C339.991 474.17 339.324 474.379 338.778 474.795C338.241 475.212 337.828 475.803 337.54 476.568C337.252 477.333 337.108 478.235 337.108 479.273Z" fill="black"/>
</svg>
